<svg viewBox="0 0 28 28" xmlns="http://www.w3.org/2000/svg">
  <!-- base note -->
  <g class="cp-chrome" stroke="currentColor" stroke-width="2" fill="none"
     stroke-linecap="butt" stroke-linejoin="miter">
    <!-- stem -->
    <path d="M18 5 V18"/>
    <!-- flag -->
    <path d="M18 8 C22 7, 24 9, 24 11 C24 12.2, 22.8 13, 21 13"/>
    <!-- head -->
    <ellipse cx="12" cy="19" rx="4" ry="3"/>
  </g>

  <!-- glitch slices (accent) -->
  <g class="cp-accent" stroke="currentColor" stroke-width="2" fill="none" opacity="0.65">
    <g transform="translate(-0.8,-0.6)">
      <path d="M18 5 V18"/>
      <path d="M18 8 C22 7, 24 9, 24 11 C24 12.2, 22.8 13, 21 13"/>
      <ellipse cx="12" cy="19" rx="4" ry="3"/>
    </g>
  </g>

  <!-- pixel glitch bars (accent2) -->
  <g class="cp-accent2" fill="currentColor" opacity="0.6">
    <rect x="8" y="17" width="6" height="1"/>
    <rect x="9" y="19" width="7" height="1"/>
    <rect x="10" y="21" width="5" height="1"/>
    <rect x="17" y="9" width="6" height="1"/>
    <rect x="19" y="11" width="5" height="1"/>
  </g>
</svg>
